<mxfile host="app.diagrams.net" modified="2023-08-12T22:25:59.468Z" agent="Mozilla/5.0 (Windows NT 10.0; Win64; x64) AppleWebKit/537.36 (KHTML, like Gecko) Chrome/115.0.0.0 Safari/537.36" version="21.6.6" etag="AaMHf0921yOAKX2hlk9u" type="github">
  <diagram name="PÃ¡gina-1" id="iRjPd0P94fSLHJ7MEbGK">
    <mxGraphModel>
      <root>
        <mxCell id="0" />
        <mxCell id="1" parent="0" />
      </root>
    </mxGraphModel>
  </diagram>
</mxfile>
